PathFileType	4	(X/Y/Z)	 s07c0201.trc
DataRate	CameraRate	NumFrames	NumMarkers	Units	OrigDataRate	OrigDataStartFrame	OrigNumFrames
200	200	5	48	mm	200	1751	2000
Frame#	Time	racr			lacr			c7			jug			rlel			rdr			llel			ldr			s2			lic			ric			lasi			rasi			rpsi			lpsi			rgt			lgt			rth1			rth2			rth3			rth4			rlfc			rmfc			rsh1			rsh2			rsh3			rsh4			rlmal			rcal			rtoe			rmt5			lth1			lth2			lth4			lth3			llfc			lmfc			lsh1			lsh2			lsh3			lsh4			llmal			lcal			ltoe			lmt5			SBIKE			LBIKE			RBIKE			
		X1	Y1	Z1	X2	Y2	Z2	X3	Y3	Z3	X4	Y4	Z4	X5	Y5	Z5	X6	Y6	Z6	X7	Y7	Z7	X8	Y8	Z8	X9	Y9	Z9	X10	Y10	Z10	X11	Y11	Z11	X12	Y12	Z12	X13	Y13	Z13	X14	Y14	Z14	X15	Y15	Z15	X16	Y16	Z16	X17	Y17	Z17	X18	Y18	Z18	X19	Y19	Z19	X20	Y20	Z20	X21	Y21	Z21	X22	Y22	Z22	X23	Y23	Z23	X24	Y24	Z24	X25	Y25	Z25	X26	Y26	Z26	X27	Y27	Z27	X28	Y28	Z28	X29	Y29	Z29	X30	Y30	Z30	X31	Y31	Z31	X32	Y32	Z32	X33	Y33	Z33	X34	Y34	Z34	X35	Y35	Z35	X36	Y36	Z36	X37	Y37	Z37	X38	Y38	Z38	X39	Y39	Z39	X40	Y40	Z40	X41	Y41	Z41	X42	Y42	Z42	X43	Y43	Z43	X44	Y44	Z44	X45	Y45	Z45	X46	Y46	Z46	X47	Y47	Z47	X48	Y48	Z48	
1751	8.7550	396.663008	1495.532830	-68.362063	391.273035	1486.894723	-368.357085	350.229369	1552.787361	-218.338231	345.447273	1405.628124	-219.573114	505.817098	1170.016863	0.989744	695.657275	939.662196	-61.722445	499.557716	1173.086215	-433.053407	678.881019	926.528165	-390.917627	-148.685907	1188.920163	-238.515642	3.678813	1266.422942	-379.427831	10.441476	1255.069851	-83.327290	47.765564	1193.150359	-353.677600	33.974687	1200.973564	-103.415003	-129.737135	1230.125001	-185.885591	-118.025743	1243.369626	-294.706884	-24.730184	1115.768392	-47.063141	-26.497804	1101.389822	-408.776957	112.038719	1045.170666	-39.158327	196.835061	1023.928553	-48.311611	260.765285	967.241492	-47.133278	211.847437	1053.883880	-65.041225	373.126447	879.154355	-80.102349	369.230712	864.262639	-185.316924	334.984478	741.089490	-56.090239	330.820596	653.547185	-75.632741	287.843315	578.230409	-71.226346	346.229077	653.388803	-112.643555	242.668944	450.173610	-72.308047	173.276702	417.755260	-99.578847	457.348356	363.681899	-123.743361	379.850726	339.902447	-49.948105	56.651768	1006.761101	-415.554310	135.580013	966.899492	-415.882300	159.454552	993.204033	-407.241572	184.708684	892.706745	-411.627933	294.545906	755.243557	-376.858521	284.588722	739.045499	-280.080230	194.311978	646.061277	-399.720865	151.501576	573.436535	-381.352117	75.724711	525.671347	-390.931332	155.356314	572.979079	-339.479950	-23.394860	439.650618	-391.653771	-101.233465	445.451556	-359.314467	125.038508	264.754325	-355.124077	45.289176	291.139075	-419.759306	-261.845811	976.555406	-233.309207	-76.645968	83.273475	-437.689680	-83.375891	79.579461	-40.179827	
1752	8.7600	397.011667	1495.771018	-68.838447	391.069216	1486.951537	-368.935393	350.260179	1552.932270	-218.740551	345.534826	1405.821253	-220.071597	506.362646	1170.143077	0.209279	695.710468	939.362358	-62.160489	499.538946	1173.229022	-433.600110	678.725950	926.648892	-391.221589	-148.785673	1189.155342	-238.266171	3.397920	1266.853500	-379.148268	10.643341	1254.880827	-83.263487	47.500348	1193.522606	-353.414602	34.110527	1200.606101	-103.283365	-129.707888	1230.212394	-185.545455	-118.123628	1243.673702	-294.440873	-24.969989	1115.043714	-47.147689	-26.589903	1102.044883	-408.882772	110.859249	1042.116834	-38.611179	195.295261	1019.349801	-47.620979	258.253227	961.406057	-46.524378	210.993842	1049.072037	-64.128665	369.396176	872.016165	-79.608766	365.874268	857.464178	-184.101105	331.959361	733.862717	-55.495327	328.558494	646.276534	-75.153953	286.262351	570.619859	-70.913346	344.055949	646.332413	-112.198611	242.137833	442.173967	-72.272775	173.093101	409.104141	-99.569892	457.656210	357.814621	-123.604841	379.797790	332.353565	-50.760341	57.363332	1008.372778	-415.720578	136.834497	969.611739	-416.378203	160.399154	996.151340	-407.780807	186.988338	895.984422	-412.222434	298.340177	759.651496	-377.682340	289.421562	743.087577	-281.179966	197.515934	650.988002	-400.132764	154.012225	578.790063	-381.663828	77.701960	531.821222	-391.132007	157.854958	578.353990	-339.814284	-22.226114	446.906245	-391.639181	-99.988723	453.643337	-359.224611	124.210037	270.334696	-355.170359	44.841652	297.535368	-419.716602	-261.834630	976.565550	-233.289986	-76.639534	83.303326	-437.687523	-83.373405	79.568083	-40.194086	
1753	8.7650	397.428542	1495.763766	-69.542465	390.899391	1487.044315	-369.558212	350.327817	1553.123830	-219.132759	345.701877	1406.033562	-220.558712	506.979761	1170.301598	-0.631510	695.799647	939.062432	-62.593383	499.545451	1173.428804	-434.265938	678.626958	926.745890	-391.524164	-148.851952	1189.425187	-238.016055	3.230067	1267.182630	-378.953260	11.039259	1254.727084	-83.330819	47.248841	1193.771387	-353.080413	34.252038	1200.317385	-102.984700	-129.649337	1230.390394	-185.188955	-118.260474	1243.990037	-294.063773	-25.258200	1114.379870	-47.251430	-26.697704	1102.837100	-409.007742	109.687130	1039.096735	-38.040069	193.712028	1014.740551	-46.843413	255.528986	955.798872	-45.888538	210.040986	1044.235299	-63.162102	365.565176	865.061521	-79.032057	362.246752	850.533148	-183.100574	328.796690	726.568417	-54.829147	326.192086	639.083067	-74.746546	284.497380	563.067255	-70.588977	341.747451	639.295733	-111.765020	241.820943	433.978900	-72.377334	172.857855	400.439565	-99.700625	457.696943	351.552176	-123.376244	380.052457	325.507962	-50.746551	58.091688	1010.097252	-415.888713	138.050666	972.360726	-416.856639	161.284305	999.155003	-408.352647	189.179002	899.430256	-412.956709	302.156266	764.291399	-378.546512	293.372894	747.859703	-281.645308	200.708608	656.057692	-400.574013	156.495435	584.273415	-381.948895	79.724474	537.981606	-391.255612	160.521283	583.901749	-340.235442	-20.893749	454.070378	-391.759442	-98.603747	461.654284	-359.204074	123.601374	276.456488	-355.814566	44.585323	304.142927	-419.703151	-261.815668	976.564475	-233.242119	-76.646445	83.299830	-437.707855	-83.383521	79.565553	-40.179416	
1754	8.7700	397.812243	1495.901709	-70.104075	390.779312	1487.150003	-370.257056	350.412534	1553.398158	-219.589298	345.925818	1406.287240	-221.077321	507.531943	1170.498115	-1.382952	695.819190	938.784721	-63.081253	499.653703	1173.677740	-434.976011	678.446134	926.784737	-391.830498	-148.898653	1189.681438	-237.746861	3.005112	1267.548273	-378.691295	11.430155	1254.578236	-83.139300	47.221243	1194.164784	-353.065425	34.469813	1200.032312	-102.853812	-129.529651	1230.526334	-184.847824	-118.314513	1244.326402	-293.736853	-25.473472	1113.725938	-47.361047	-26.812238	1103.613471	-409.152527	108.433514	1036.059593	-37.528882	192.042858	1010.153316	-46.141431	252.723302	949.986233	-45.236328	208.909532	1039.467763	-62.235618	361.532075	858.150995	-78.530079	358.382228	843.651840	-182.332332	325.530518	719.295734	-54.293378	323.710690	631.906311	-74.318183	282.727668	555.477188	-70.359943	339.170435	632.213035	-111.320305	240.818661	426.001863	-72.367443	170.965889	393.025162	-98.912856	457.612315	345.270627	-123.177783	380.070835	318.523382	-50.724779	58.779604	1011.800800	-416.138675	139.236069	975.110144	-417.375264	162.140724	1002.230608	-408.871432	191.336813	902.861066	-413.628639	305.871816	768.731248	-379.194182	295.847567	752.968364	-281.530812	203.907344	661.156167	-401.030001	159.000035	589.936883	-382.271546	81.788329	544.239522	-391.487982	163.096246	589.384923	-340.530883	-19.494458	461.372289	-391.694658	-97.122300	469.606270	-359.174919	123.349434	282.425429	-355.757797	44.582427	310.858925	-419.699003	-261.791295	976.564706	-233.237943	-76.643023	83.153863	-437.595807	-83.385657	79.568845	-40.175712	
1755	8.7750	398.222039	1496.082165	-70.644689	390.735677	1487.277439	-370.878713	350.534976	1553.638752	-220.073652	346.178883	1406.604798	-221.589528	508.176929	1170.698065	-2.222802	695.829576	938.601977	-63.539150	499.763232	1173.909825	-435.661734	678.284845	926.807867	-392.182005	-148.884276	1189.952021	-237.463457	2.769752	1267.976543	-378.405010	11.840851	1254.416185	-82.993781	47.225346	1194.673022	-353.105790	34.784257	1199.710713	-102.726886	-129.384243	1230.676709	-184.492403	-118.703455	1244.675293	-293.050664	-25.674076	1113.162484	-47.417899	-26.894656	1104.389468	-409.310616	107.104067	1033.087591	-37.053787	190.256621	1005.514782	-45.516852	249.768171	944.330761	-44.660749	207.778129	1034.599488	-61.401382	357.430191	851.135459	-77.989647	354.427013	836.758130	-181.534913	322.215613	712.065525	-53.713554	321.055599	624.645863	-73.891401	280.603711	547.932540	-70.142778	336.479721	625.156051	-110.896414	239.933388	417.953999	-72.206726	169.645672	385.477432	-98.135500	457.609552	339.417772	-122.608019	379.800446	311.498485	-50.750156	59.474959	1013.560582	-416.351091	140.397792	977.944716	-417.790688	163.000487	1005.354922	-409.366081	193.457498	906.335374	-414.272542	309.569531	773.352177	-379.794149	300.378940	757.801915	-281.622083	207.182489	666.368365	-401.462467	161.579647	595.590412	-382.592494	83.936340	550.564626	-391.641282	165.738466	594.971816	-340.812053	-18.081243	468.597825	-391.723530	-95.488409	477.708721	-359.281213	123.369225	288.549016	-355.749294	44.842979	317.620875	-419.677485	-261.791964	976.571154	-233.247866	-76.646338	83.289323	-437.699640	-83.381505	79.572821	-40.168386	
